<?xml version="1.0" standalone="no"?>
<!DOCTYPE svg PUBLIC "-//W3C//DTD SVG 20010904//EN"
 "http://www.w3.org/TR/2001/REC-SVG-20010904/DTD/svg10.dtd">
<svg version="1.0" xmlns="http://www.w3.org/2000/svg"
 width="1024.000000pt" height="1024.000000pt" viewBox="0 0 1024.000000 1024.000000"
 preserveAspectRatio="xMidYMid meet">
<metadata>
Created by potrace 1.14, written by Peter Selinger 2001-2017
</metadata>
<g transform="translate(0.000000,1024.000000) scale(0.100000,-0.100000)"
fill="#000000" stroke="none">
<path d="M880 5962 c0 -2353 -3 -4657 -7 -5120 l-6 -842 4253 0 4253 0 -6 842
c-4 463 -7 2767 -7 5120 l0 4278 -4240 0 -4240 0 0 -4278z m4860 2864 c439
-65 801 -207 1110 -434 331 -245 583 -636 685 -1068 74 -308 73 -715 0 -1005
-135 -532 -474 -953 -973 -1210 -252 -129 -510 -207 -828 -250 -142 -19 -224
-22 -751 -26 l-593 -6 0 -1158 0 -1159 -615 0 -615 0 0 3171 0 3170 1233 -4
c1099 -3 1244 -5 1347 -21z"/>
<path d="M4390 6840 l0 -1012 558 5 c600 5 626 7 790 61 141 47 310 159 396
261 146 176 219 396 217 660 -2 431 -184 761 -510 925 -82 41 -126 57 -226 83
-75 19 -114 21 -652 24 l-573 4 0 -1011z"/>
</g>
</svg>
