<svg viewBox="0 0 10 10" xmlns="http://www.w3.org/2000/svg" xml:space="preserve" style="fill-rule:evenodd;clip-rule:evenodd;stroke-linejoin:round;stroke-miterlimit:2"><path d="M2.387 2.981c.336 0 .636-.133.866-.34l3.148 1.832a1.452 1.452 0 0 0-.039.309c0 .106.017.208.039.309L3.288 6.906a1.321 1.321 0 0 0-2.226.968c0 .733.592 1.324 1.325 1.324s1.325-.591 1.325-1.324c0-.106-.018-.208-.04-.31l3.114-1.815a1.323 1.323 0 0 0 2.225-.967 1.322 1.322 0 0 0-2.225-.967L3.641 1.978c.022-.093.036-.19.036-.287a1.29 1.29 0 1 0-1.29 1.29Z" style="fill-rule:nonzero"/></svg>