<?xml version="1.0" encoding="UTF-8" standalone="no"?><!DOCTYPE svg PUBLIC "-//W3C//DTD SVG 1.1//EN" "http://www.w3.org/Graphics/SVG/1.1/DTD/svg11.dtd"><svg width="100%" height="100%" viewBox="0 0 10 10" version="1.1" xmlns="http://www.w3.org/2000/svg" xmlns:xlink="http://www.w3.org/1999/xlink" xml:space="preserve" xmlns:serif="http://www.serif.com/" style="fill-rule:evenodd;clip-rule:evenodd;stroke-linejoin:round;stroke-miterlimit:2;"><path d="M2.387,2.981c0.336,-0 0.636,-0.133 0.866,-0.34l3.148,1.832c-0.022,0.102 -0.039,0.203 -0.039,0.309c-0,0.106 0.017,0.208 0.039,0.309l-3.113,1.815c-0.238,-0.22 -0.552,-0.357 -0.901,-0.357c-0.733,-0 -1.325,0.591 -1.325,1.325c0,0.733 0.592,1.324 1.325,1.324c0.733,0 1.325,-0.591 1.325,-1.324c0,-0.106 -0.018,-0.208 -0.04,-0.31l3.114,-1.815c0.238,0.221 0.552,0.358 0.9,0.358c0.734,0 1.325,-0.592 1.325,-1.325c0,-0.733 -0.591,-1.324 -1.325,-1.324c-0.348,-0 -0.662,0.136 -0.9,0.357l-3.145,-1.837c0.022,-0.093 0.036,-0.19 0.036,-0.287c-0,-0.711 -0.579,-1.289 -1.29,-1.289c-0.711,-0 -1.289,0.578 -1.289,1.289c-0,0.711 0.578,1.29 1.289,1.29Z" style="fill-rule:nonzero;"/></svg>